# Blender v2.71 (sub 0) OBJ File: ''
# www.blender.org
v 1.000000 -1.000000 -1.000000
v 1.000000 -1.000000 1.000000
v -1.000000 -1.000000 1.000000
v -1.000000 -1.000000 -1.000000
v 1.000000 1.000000 -0.999999
v 0.999999 1.000000 1.000001
v -1.000000 1.000000 1.000000
v -1.000000 1.000000 -1.000000
vt 0.664062 0.671875
vt 0.664062 0.339844
vt 0.996094 0.339844
vt 0.332031 0.671875
vt 0.332031 0.339844
vt 0.664062 1.000000
vt 0.332031 1.000000
vt 0.000000 1.000000
vt 0.000000 0.671875
vt 0.000000 0.339844
vt 0.996094 0.671875
vt 0.996094 1.000000
vn 0.000000 -1.000000 0.000000
vn 0.000000 1.000000 0.000000
vn 1.000000 -0.000000 0.000000
vn -0.000000 -0.000000 1.000000
vn -1.000000 -0.000000 -0.000000
vn 0.000000 0.000000 -1.000000
s off
f 2/1/1 3/2/1 4/3/1
f 8/4/2 7/5/2 6/2/2
f 1/1/3 5/6/3 6/7/3
f 2/4/4 6/7/4 7/8/4
f 7/4/5 8/9/5 4/10/5
f 1/1/6 4/11/6 8/12/6
f 1/11/1 2/1/1 4/3/1
f 5/1/2 8/4/2 6/2/2
f 2/4/3 1/1/3 6/7/3
f 3/9/4 2/4/4 7/8/4
f 3/5/5 7/4/5 4/10/5
f 5/6/6 1/1/6 8/12/6
